<svg xmlns="http://www.w3.org/2000/svg" xmlns:xlink="http://www.w3.org/1999/xlink" zoomAndPan="magnify" preserveAspectRatio="xMidYMid meet" version="1.0" viewBox="22.53 154.9 325.63 63.13"><defs><g/><clipPath id="78e8238f9f"><path d="M 59 154.902344 L 100 154.902344 L 100 218 L 59 218 Z M 59 154.902344 " clip-rule="nonzero"/></clipPath></defs><g clip-path="url(#78e8238f9f)"><path fill="#ffffff" d="M 87.984375 183.078125 C 86.265625 183.078125 84.871094 181.6875 84.871094 179.972656 C 84.871094 178.257812 86.265625 176.867188 87.984375 176.867188 C 89.707031 176.867188 91.101562 178.257812 91.101562 179.972656 C 91.101562 181.6875 89.707031 183.078125 87.984375 183.078125 Z M 82.320312 188.71875 C 80.601562 188.71875 79.207031 187.328125 79.207031 185.617188 C 79.207031 183.902344 80.601562 182.511719 82.320312 182.511719 C 84.042969 182.511719 85.4375 183.902344 85.4375 185.617188 C 85.4375 187.328125 84.042969 188.71875 82.320312 188.71875 Z M 76.65625 183.078125 C 74.9375 183.078125 73.542969 181.6875 73.542969 179.972656 C 73.542969 178.257812 74.9375 176.867188 76.65625 176.867188 C 78.378906 176.867188 79.773438 178.257812 79.773438 179.972656 C 79.773438 181.6875 78.378906 183.078125 76.65625 183.078125 Z M 72.914062 199.984375 C 69.855469 199.984375 67.375 197.511719 67.375 194.464844 C 67.375 191.414062 69.855469 188.945312 72.914062 188.945312 C 75.972656 188.945312 78.453125 191.414062 78.453125 194.464844 C 78.453125 197.511719 75.972656 199.984375 72.914062 199.984375 Z M 82.320312 171.226562 C 84.042969 171.226562 85.4375 172.617188 85.4375 174.328125 C 85.4375 176.042969 84.042969 177.433594 82.320312 177.433594 C 80.601562 177.433594 79.207031 176.042969 79.207031 174.328125 C 79.207031 172.617188 80.601562 171.226562 82.320312 171.226562 Z M 99.085938 193.546875 C 98.65625 190.582031 98.136719 187.570312 97.324219 184.683594 C 95.90625 179.675781 93.601562 175.03125 89.328125 171.597656 C 87.300781 169.96875 85.128906 168.953125 82.863281 168.367188 C 82.945312 168.152344 82.992188 167.921875 82.992188 167.679688 C 82.992188 166.589844 82.105469 165.707031 81.011719 165.707031 L 72.304688 165.707031 C 71.210938 165.707031 70.324219 166.589844 70.324219 167.679688 C 70.324219 167.855469 70.351562 168.023438 70.394531 168.1875 C 70.101562 168.226562 69.808594 168.265625 69.515625 168.304688 C 68.359375 168.46875 67.195312 168.613281 66.023438 168.734375 L 67.839844 154.921875 L 60.449219 177.957031 L 71.449219 177.957031 L 59.320312 202.429688 L 67.671875 202.429688 C 70.53125 202.429688 73.21875 203.824219 74.84375 206.167969 C 81.472656 215.75 88.292969 220.144531 95.109375 214.523438 C 100.898438 209.746094 100.035156 200.121094 99.085938 193.546875 " fill-opacity="1" fill-rule="nonzero"/></g><path fill="#ffffff" d="M 49.386719 199.984375 C 46.324219 199.984375 43.84375 197.511719 43.84375 194.464844 C 43.84375 191.414062 46.324219 188.945312 49.386719 188.945312 C 52.445312 188.945312 54.925781 191.414062 54.925781 194.464844 C 54.925781 197.511719 52.445312 199.984375 49.386719 199.984375 Z M 43.207031 182.582031 L 40.816406 180.199219 C 40.679688 180.066406 40.679688 179.847656 40.816406 179.714844 L 43.175781 177.363281 C 43.300781 177.238281 43.464844 177.167969 43.640625 177.167969 L 47.375 177.167969 L 47.375 182.777344 L 43.671875 182.777344 C 43.5 182.777344 43.332031 182.707031 43.207031 182.582031 Z M 42.703125 187.429688 L 37.078125 187.429688 L 37.078125 183.707031 C 37.078125 183.535156 37.148438 183.367188 37.269531 183.246094 L 39.648438 180.878906 C 39.78125 180.742188 40 180.742188 40.132812 180.878906 L 42.511719 183.246094 C 42.636719 183.367188 42.703125 183.535156 42.703125 183.707031 Z M 36.109375 182.777344 L 32.40625 182.777344 L 32.40625 177.167969 L 36.140625 177.167969 C 36.316406 177.167969 36.484375 177.238281 36.605469 177.363281 L 38.96875 179.714844 C 39.101562 179.847656 39.101562 180.066406 38.96875 180.199219 L 36.574219 182.582031 C 36.449219 182.707031 36.285156 182.777344 36.109375 182.777344 Z M 37.078125 172.515625 L 42.703125 172.515625 L 42.703125 176.203125 C 42.703125 176.378906 42.636719 176.546875 42.511719 176.667969 L 40.132812 179.035156 C 40 179.171875 39.78125 179.171875 39.648438 179.035156 L 37.269531 176.667969 C 37.148438 176.546875 37.078125 176.378906 37.078125 176.203125 Z M 50.605469 218.035156 L 61.832031 183.738281 L 50.605469 183.738281 L 58.9375 168.960938 C 56.875 168.820312 54.816406 168.589844 52.785156 168.304688 C 51.972656 168.191406 51.160156 168.085938 50.347656 167.996094 C 50.367188 167.890625 50.378906 167.785156 50.378906 167.679688 C 50.378906 166.589844 49.492188 165.707031 48.398438 165.707031 L 39.691406 165.707031 C 38.597656 165.707031 37.714844 166.589844 37.714844 167.679688 C 37.714844 168.089844 37.839844 168.46875 38.054688 168.785156 C 36.285156 169.394531 34.582031 170.300781 32.972656 171.597656 C 28.699219 175.03125 26.390625 179.675781 24.976562 184.683594 C 24.160156 187.570312 23.640625 190.582031 23.214844 193.546875 C 22.265625 200.121094 21.402344 209.746094 27.191406 214.523438 C 34.007812 220.144531 40.824219 215.75 47.457031 206.167969 C 48.78125 204.257812 50.808594 202.980469 53.0625 202.570312 L 50.605469 218.035156 " fill-opacity="1" fill-rule="nonzero"/><g fill="#ffffff" fill-opacity="1"><g transform="translate(111.21978, 201.37903)"><g><path d="M 11.765625 0.3125 C 9.765625 0.3125 8 -0.113281 6.46875 -0.96875 C 4.9375 -1.832031 3.75 -3.046875 2.90625 -4.609375 C 2.0625 -6.179688 1.640625 -7.992188 1.640625 -10.046875 L 1.640625 -17.21875 C 1.640625 -19.269531 2.0625 -21.082031 2.90625 -22.65625 C 3.75 -24.226562 4.941406 -25.441406 6.484375 -26.296875 C 8.023438 -27.148438 9.8125 -27.578125 11.84375 -27.578125 L 16.203125 -27.578125 C 18.148438 -27.578125 19.863281 -27.1875 21.34375 -26.40625 C 22.820312 -25.625 23.96875 -24.519531 24.78125 -23.09375 C 25.601562 -21.664062 26.015625 -20.019531 26.015625 -18.15625 L 20.71875 -18.15625 C 20.71875 -19.550781 20.300781 -20.675781 19.46875 -21.53125 C 18.644531 -22.394531 17.554688 -22.828125 16.203125 -22.828125 L 11.84375 -22.828125 C 10.382812 -22.828125 9.210938 -22.285156 8.328125 -21.203125 C 7.453125 -20.128906 7.015625 -18.722656 7.015625 -16.984375 L 7.015625 -10.28125 C 7.015625 -8.539062 7.445312 -7.128906 8.3125 -6.046875 C 9.1875 -4.972656 10.335938 -4.4375 11.765625 -4.4375 L 16.359375 -4.4375 C 17.679688 -4.4375 18.773438 -4.914062 19.640625 -5.875 C 20.515625 -6.84375 20.953125 -8.039062 20.953125 -9.46875 L 20.953125 -10.328125 L 13.40625 -10.328125 L 13.40625 -15 L 26.25 -15 L 26.25 -9.46875 C 26.25 -7.570312 25.832031 -5.882812 25 -4.40625 C 24.175781 -2.925781 23.007812 -1.769531 21.5 -0.9375 C 20 -0.101562 18.285156 0.3125 16.359375 0.3125 Z M 11.765625 0.3125 "/></g></g></g><g fill="#ffffff" fill-opacity="1"><g transform="translate(138.955648, 201.37903)"><g><path d="M 6.1875 0 C 5.070312 0 4.164062 -0.335938 3.46875 -1.015625 C 2.769531 -1.691406 2.421875 -2.570312 2.421875 -3.65625 L 2.421875 -27.265625 L 23.21875 -27.265625 L 23.21875 -22.59375 L 7.796875 -22.59375 L 7.796875 -16.28125 L 22.046875 -16.28125 L 22.046875 -11.609375 L 7.796875 -11.609375 L 7.796875 -4.671875 L 23.21875 -4.671875 L 23.21875 0 Z M 6.1875 0 "/></g></g></g><g fill="#ffffff" fill-opacity="1"><g transform="translate(163.419309, 201.37903)"><g><path d="M 9.109375 -22.59375 L 0.46875 -22.59375 L 0.46875 -27.265625 L 23.140625 -27.265625 L 23.140625 -22.59375 L 14.484375 -22.59375 L 14.484375 0 L 9.109375 0 Z M 9.109375 -22.59375 "/></g></g></g><g fill="#ffffff" fill-opacity="1"><g transform="translate(187.025961, 201.37903)"><g><path d="M 9.109375 -22.59375 L 0.46875 -22.59375 L 0.46875 -27.265625 L 23.140625 -27.265625 L 23.140625 -22.59375 L 14.484375 -22.59375 L 14.484375 0 L 9.109375 0 Z M 9.109375 -22.59375 "/></g></g></g><g fill="#ffffff" fill-opacity="1"><g transform="translate(210.632614, 201.37903)"><g><path d="M 18.390625 -6.34375 L 8.1875 -6.34375 L 5.765625 0 L 0.15625 0 L 10.828125 -27.265625 L 13.25 -27.265625 C 14.9375 -27.265625 16.078125 -26.488281 16.671875 -24.9375 L 26.375 0 L 20.765625 0 Z M 9.625 -10.875 L 16.9375 -10.875 L 13.328125 -20.6875 L 13.28125 -20.6875 Z M 9.625 -10.875 "/></g></g></g><g fill="#ffffff" fill-opacity="1"><g transform="translate(241.908549, 199.874987)"><g><path d="M 9.25 0.25 C 7.78125 0.25 6.492188 -0.0820312 5.390625 -0.75 C 4.296875 -1.425781 3.441406 -2.378906 2.828125 -3.609375 C 2.222656 -4.847656 1.921875 -6.269531 1.921875 -7.875 L 1.921875 -14.53125 C 1.921875 -16.125 2.234375 -17.535156 2.859375 -18.765625 C 3.492188 -19.992188 4.375 -20.945312 5.5 -21.625 C 6.632812 -22.3125 7.9375 -22.65625 9.40625 -22.65625 L 12.796875 -22.65625 C 14.203125 -22.65625 15.441406 -22.351562 16.515625 -21.75 C 17.597656 -21.15625 18.4375 -20.3125 19.03125 -19.21875 C 19.632812 -18.132812 19.9375 -16.890625 19.9375 -15.484375 L 17.625 -15.484375 C 17.625 -17.003906 17.179688 -18.226562 16.296875 -19.15625 C 15.410156 -20.082031 14.242188 -20.546875 12.796875 -20.546875 L 9.40625 -20.546875 C 7.875 -20.546875 6.632812 -19.992188 5.6875 -18.890625 C 4.75 -17.796875 4.28125 -16.34375 4.28125 -14.53125 L 4.28125 -7.875 C 4.28125 -6.0625 4.734375 -4.601562 5.640625 -3.5 C 6.554688 -2.40625 7.757812 -1.859375 9.25 -1.859375 L 12.703125 -1.859375 C 14.210938 -1.859375 15.4375 -2.378906 16.375 -3.421875 C 17.320312 -4.460938 17.796875 -5.835938 17.796875 -7.546875 L 17.796875 -9.46875 L 11.578125 -9.46875 L 11.578125 -11.546875 L 20.09375 -11.546875 L 20.09375 -7.546875 C 20.09375 -6.015625 19.785156 -4.65625 19.171875 -3.46875 C 18.566406 -2.289062 17.703125 -1.375 16.578125 -0.71875 C 15.460938 -0.0703125 14.171875 0.25 12.703125 0.25 Z M 9.25 0.25 "/></g></g></g><g fill="#ffffff" fill-opacity="1"><g transform="translate(270.671178, 199.874987)"><g><path d="M 15.265625 -6.203125 L 5.4375 -6.203125 L 3.140625 0 L 0.703125 0 L 9.3125 -22.40625 L 10.40625 -22.40625 C 11.101562 -22.40625 11.613281 -21.976562 11.9375 -21.125 L 16.859375 -8.1875 L 16.890625 -8.1875 L 16.890625 -8.125 L 20 0 L 17.5625 0 Z M 6.171875 -8.1875 L 14.53125 -8.1875 L 10.375 -19.328125 L 10.34375 -19.328125 Z M 6.171875 -8.1875 "/></g></g></g><g fill="#ffffff" fill-opacity="1"><g transform="translate(298.250098, 199.874987)"><g><path d="M 2.5625 -22.40625 L 4.828125 -22.40625 L 12.828125 -7.515625 L 20.609375 -22.40625 L 22.875 -22.40625 L 22.875 0 L 20.546875 0 L 20.546875 -17.984375 L 14.078125 -5.703125 C 13.847656 -5.273438 13.644531 -4.976562 13.46875 -4.8125 C 13.300781 -4.65625 13.109375 -4.578125 12.890625 -4.578125 L 12.1875 -4.578125 L 4.890625 -17.984375 L 4.890625 0 L 2.5625 0 Z M 2.5625 -22.40625 "/></g></g></g><g fill="#ffffff" fill-opacity="1"><g transform="translate(330.563851, 199.874987)"><g><path d="M 4.640625 0 C 3.972656 0 3.457031 -0.1875 3.09375 -0.5625 C 2.738281 -0.9375 2.5625 -1.453125 2.5625 -2.109375 L 2.5625 -22.40625 L 17.59375 -22.40625 L 17.59375 -20.359375 L 4.921875 -20.359375 L 4.921875 -12.484375 L 16.640625 -12.484375 L 16.640625 -10.4375 L 4.921875 -10.4375 L 4.921875 -2.046875 L 17.59375 -2.046875 L 17.59375 0 Z M 4.640625 0 "/></g></g></g></svg>